<svg width="410" height="270" xmlns="http://www.w3.org/2000/svg" xmlns:svg="http://www.w3.org/2000/svg">
 <!-- Created with SVG-edit - http://svg-edit.googlecode.com/ -->
 <title>OP-TEE Bootstrap Trusted Application Draft</title>
 <g>
  <title>Layer 1</title>
  <rect fill="#ffffff" x="158" y="35" width="205" height="215.00001" id="svg_1" stroke="#000000"/>
  <path fill="#ffffff" d="m153.99999,142.6325c-5.52284,0 -9.99999,-0.58475 -9.99999,-1.30607l0,-45.38786c0,-0.72132 -4.47715,-1.30607 -10,-1.30607l0,0c5.52285,0 10,-0.58475 10,-1.30607l0,-45.38786l0,0c0,-0.72132 4.47715,-1.30607 9.99999,-1.30607" id="svg_2" stroke="#000000"/>
  <text fill="#00007f" stroke-width="0" stroke-dasharray="null" stroke-linejoin="null" stroke-linecap="null" x="28.85841" y="-34.66543" id="svg_7" font-size="24" font-family="Monospace" text-anchor="middle" xml:space="preserve" transform="matrix(0.4094153344631195,0,0,0.4094153344631195,199.23927365010604,66.7360672056675) " stroke="#000000">uint32_t: magic</text>
  <text fill="#00007f" stroke-width="0" stroke-dasharray="null" stroke-linejoin="null" stroke-linecap="null" x="50.49272" y="7.97298" font-size="24" font-family="Monospace" text-anchor="middle" xml:space="preserve" transform="matrix(0.4094153344631195,0,0,0.4094153344631195,199.23927365010604,66.7360672056675) " stroke="#000000" id="svg_8">uint32_t: img_type</text>
  <text fill="#00007f" stroke-width="0" stroke-dasharray="null" stroke-linejoin="null" stroke-linecap="null" x="50.49534" y="51.93088" font-size="24" font-family="Monospace" text-anchor="middle" xml:space="preserve" transform="matrix(0.4094153344631195,0,0,0.4094153344631195,199.23927365010604,66.7360672056675) " stroke="#000000" id="svg_9">uint32_t: img_size</text>
  <text fill="#00007f" stroke-width="0" stroke-dasharray="null" stroke-linejoin="null" stroke-linecap="null" x="21.64363" y="93.46331" font-size="24" font-family="Monospace" text-anchor="middle" xml:space="preserve" transform="matrix(0.4094153344631195,0,0,0.4094153344631195,199.23927365010604,66.7360672056675) " stroke="#000000" id="svg_10">uint32_t: algo</text>
  <text fill="#00007f" stroke-width="0" stroke-dasharray="null" stroke-linejoin="null" stroke-linecap="null" x="57.70998" y="139.8615" font-size="24" font-family="Monospace" text-anchor="middle" xml:space="preserve" transform="matrix(0.4094153344631195,0,0,0.4094153344631195,199.23927365010604,66.7360672056675) " stroke="#000000" id="svg_11">uint16_t: hash_size</text>
  <text fill="#00007f" stroke-width="0" stroke-dasharray="null" stroke-linejoin="null" stroke-linecap="null" x="50.50334" y="186.2817" font-size="24" font-family="Monospace" text-anchor="middle" xml:space="preserve" transform="matrix(0.4094153344631195,0,0,0.4094153344631195,199.23927365010604,66.7360672056675) " stroke="#000000" id="svg_12">uint16_t: sig_size</text>
  <text fill="#00007f" stroke-width="0" stroke-dasharray="null" stroke-linejoin="null" stroke-linecap="null" x="-298.66759" y="76.36279" font-size="24" font-family="Monospace" text-anchor="middle" xml:space="preserve" transform="matrix(0.4094153344631195,0,0,0.4094153344631195,199.23927365010604,66.7360672056675) " stroke="#000000" id="svg_13">A = Signed Header</text>
  <text fill="#000000" stroke-width="0" stroke-dasharray="null" stroke-linejoin="null" stroke-linecap="null" x="151.49757" y="240.01079" font-size="24" font-family="Monospace" text-anchor="middle" xml:space="preserve" transform="matrix(0.4094153344631195,0,0,0.4094153344631195,199.23927365010604,66.7360672056675) " stroke="#000000" id="svg_14">&lt;hash_size&gt;: hash(A || B || img)</text>
  <text fill="#000000" stroke-width="0" stroke-dasharray="null" stroke-linejoin="null" stroke-linecap="null" x="349.94574" y="21.9307" id="svg_15" font-size="24" font-family="Sans-serif" text-anchor="middle" xml:space="preserve" transform="matrix(0.6750945448875427,0,0,0.6750945448875427,22.74845850560814,11.046785473823547) " stroke="#000000">Bootstrap Trusted Application</text>
  <text fill="#000000" stroke-width="0" stroke-dasharray="null" stroke-linejoin="null" stroke-linecap="null" x="115.43427" y="283.97384" font-size="24" font-family="Monospace" text-anchor="middle" xml:space="preserve" transform="matrix(0.4094153344631195,0,0,0.4094153344631195,199.23927365010604,66.7360672056675) " stroke="#000000" id="svg_16">&lt;sig_size&gt;: signature(hash)</text>
  <text fill="#7f0000" stroke-width="0" stroke-dasharray="null" stroke-linejoin="null" stroke-linecap="null" x="43.28662" y="335.26858" font-size="24" font-family="Monospace" text-anchor="middle" xml:space="preserve" transform="matrix(0.4094153344631195,0,0,0.4094153344631195,199.23927365010604,66.7360672056675) " stroke="#000000" id="svg_18">uint8_t[16]: uuid</text>
  <text fill="#3f007f" stroke-width="0" stroke-dasharray="null" stroke-linejoin="null" stroke-linecap="null" x="129.86057" y="420.75416" font-size="24" font-family="Monospace" text-anchor="middle" xml:space="preserve" transform="matrix(0.4094153344631195,0,0,0.4094153344631195,199.23927365010604,66.7360672056675) " stroke="#000000" id="svg_20">&lt;img_size&gt;: img(stripped ELF)</text>
  <path fill="#ffffff" d="m153.99999,223.5c-5.52284,0 -9.99999,-0.17664 -9.99999,-0.39454l0,-13.71092c0,-0.2179 -4.47715,-0.39454 -10,-0.39454l0,0c5.52285,0 10,-0.17664 10,-0.39454l0,-13.71092l0,0c0,-0.2179 4.47715,-0.39454 9.99999,-0.39454" id="svg_21" stroke="#000000"/>
  <text fill="#7f0000" stroke-width="0" stroke-dasharray="null" stroke-linejoin="null" stroke-linecap="null" x="-320.30583" y="352.35659" font-size="24" font-family="Monospace" text-anchor="middle" xml:space="preserve" transform="matrix(0.4094153344631195,0,0,0.4094153344631195,199.23927365010604,66.7360672056675) " stroke="#000000" id="svg_22">B = Bootstrap Header</text>
  <text fill="#7f0000" stroke-width="0" stroke-dasharray="null" stroke-linejoin="null" stroke-linecap="null" x="43.28844" y="374.3487" font-size="24" font-family="Monospace" text-anchor="middle" xml:space="preserve" transform="matrix(0.4094153344631195,0,0,0.4094153344631195,199.23927365010604,66.7360672056675) " stroke="#000000" id="svg_3">uint32_t: version</text>
 </g>
</svg>
